<?xml version="1.0" encoding="UTF-8"?>
<svg id="Layer_2" data-name="Layer 2" xmlns="http://www.w3.org/2000/svg" xmlns:xlink="http://www.w3.org/1999/xlink" viewBox="0 0 1041.21 1041.2">
  <defs>
    <style>
      .cls-1 {
        fill: url(#linear-gradient);
        stroke-width: 0px;
      }
    </style>
    <linearGradient id="linear-gradient" x1="1156.93" y1="22.31" x2="-48.27" y2="966.06" gradientUnits="userSpaceOnUse">
      <stop offset="0" stop-color="#0096ff"/>
      <stop offset="1" stop-color="#00215b"/>
    </linearGradient>
  </defs>
  <g id="Layer_1-2" data-name="Layer 1">
    <path class="cls-1" d="m532.29.11C389.18-2.78,254.15,51.12,152.64,152.65,51.13,254.17-3.03,388.99.13,532.3c6.16,279.14,229.64,502.61,508.78,508.78,3.96.08,7.9.13,11.84.13,138.87,0,269.09-53.95,367.79-152.65,101.52-101.52,155.69-236.36,152.54-379.66C1034.92,229.75,811.42,6.27,532.29.11Zm-263.17,801.71l196.25-147.89,34.23,243.56c1.84,13.11-2.53,25.95-11.99,35.24-9.28,9.12-21.88,13.25-34.68,11.16-65.62-10.44-128.93-36.67-183.06-75.84-10.75-7.77-16.98-19.83-17.11-33.06-.13-13.15,5.82-25.25,16.35-33.16ZM499.6,143.71l-34.23,243.55-196.25-147.88c-10.51-7.93-16.48-20.03-16.35-33.19.13-13.23,6.37-25.28,17.11-33.05,54.12-39.15,117.41-65.38,183.07-75.83,2.15-.35,4.31-.52,6.44-.52,10.47,0,20.5,4.08,28.21,11.66,9.47,9.29,13.84,22.13,12,35.25Zm-293.4,109.06c.14-.01.28-.01.42-.01,13,0,24.92,5.95,32.76,16.35l147.88,196.27-243.55,34.23c-13.14,1.88-25.95-2.51-35.24-11.99-9.12-9.29-13.19-21.92-11.16-34.68,10.44-65.64,36.67-128.94,75.83-183.06,7.77-10.75,19.83-16.98,33.06-17.11Zm-62.49,288.82l243.55,34.24-147.88,196.25c-7.85,10.4-19.76,16.35-32.77,16.35h-.41c-13.23-.13-25.29-6.37-33.06-17.11-39.15-54.1-65.38-117.42-75.83-183.07-2.03-12.76,2.03-25.39,11.16-34.68,9.26-9.46,21.95-13.87,35.24-11.99Zm466.04-20.99c0,49.16-39.99,89.15-89.15,89.15s-89.15-39.99-89.15-89.15,39.99-89.15,89.15-89.15,89.15,39.99,89.15,89.15Zm162.34-281.21l-196.25,147.88-34.24-243.55c-1.84-13.11,2.53-25.96,12-35.25,7.72-7.58,17.74-11.66,28.21-11.66,2.13,0,4.29.17,6.44.52h.01c65.65,10.44,128.96,36.67,183.07,75.83,10.74,7.77,16.98,19.83,17.11,33.06.13,13.16-5.84,25.26-16.35,33.18Zm-230.49,658.11l34.24-243.56,196.25,147.89c10.51,7.92,16.48,20.01,16.35,33.16-.13,13.25-6.37,25.29-17.11,33.06-54.13,39.17-117.44,65.4-183.07,75.84-12.79,2.09-25.39-2.03-34.68-11.16-9.46-9.29-13.82-22.13-11.99-35.24Zm293.4-109.07c-.13.01-.27.01-.41.01-13,0-24.92-5.95-32.76-16.35l-147.89-196.25,243.56-34.24c13.25-1.87,25.95,2.53,35.24,11.99,9.12,9.29,13.19,21.92,11.16,34.66-10.47,65.68-36.68,128.99-75.84,183.07-7.77,10.75-19.83,16.98-33.06,17.11Zm62.51-288.82l-243.56-34.23,147.89-196.25c7.92-10.53,20.24-16.25,33.18-16.35,13.23.13,25.28,6.37,33.05,17.11,39.17,54.13,65.4,117.44,75.84,183.06,2.03,12.76-2.03,25.39-11.16,34.68-9.29,9.47-22.08,13.87-35.24,11.99Z"/>
  </g>
</svg>