<?xml version="1.0" encoding="UTF-8"?>
<svg id="Layer_2" data-name="Layer 2" xmlns="http://www.w3.org/2000/svg" viewBox="0 0 2819.01 730.59">
  <defs>
    <style>
      .cls-1 {
        fill: #fff;
        stroke-width: 0px;
      }
    </style>
  </defs>
  <g id="Layer_1-2" data-name="Layer 1">
    <g>
      <path class="cls-1" d="m373.5.08C273.08-1.95,178.33,35.87,107.1,107.11,35.88,178.35-2.12,272.95.09,373.5c4.32,195.87,161.13,352.68,357,357,2.78.06,5.54.09,8.31.09,97.44,0,188.82-37.85,258.07-107.11,71.24-71.24,109.25-165.85,107.03-266.4C726.19,161.21,569.37,4.4,373.5.08Zm-184.66,562.55l137.71-103.77,24.02,170.9c1.29,9.2-1.77,18.21-8.41,24.73-6.51,6.4-15.35,9.3-24.33,7.83-46.05-7.33-90.47-25.73-128.45-53.22-7.54-5.46-11.92-13.91-12-23.2-.09-9.23,4.09-17.72,11.47-23.27ZM350.56,100.84l-24.02,170.89-137.71-103.76c-7.38-5.56-11.56-14.05-11.47-23.29.09-9.29,4.47-17.74,12-23.19,37.97-27.47,82.38-45.88,128.46-53.21,1.51-.25,3.02-.36,4.52-.36,7.35,0,14.39,2.87,19.79,8.18,6.65,6.52,9.71,15.53,8.42,24.74Zm-205.87,76.52c.1,0,.2,0,.3,0,9.12,0,17.49,4.18,22.98,11.47l103.76,137.72-170.89,24.02c-9.22,1.32-18.21-1.76-24.73-8.41-6.4-6.52-9.26-15.38-7.83-24.33,7.33-46.06,25.73-90.48,53.21-128.45,5.46-7.54,13.91-11.92,23.2-12Zm-43.85,202.66l170.89,24.03-103.76,137.71c-5.5,7.3-13.87,11.47-22.99,11.47h-.29c-9.29-.09-17.75-4.47-23.2-12-27.47-37.96-45.88-82.39-53.21-128.46-1.43-8.95,1.43-17.81,7.83-24.33,6.5-6.64,15.4-9.73,24.73-8.41Zm327.01-14.73c0,34.49-28.06,62.56-62.56,62.56s-62.56-28.06-62.56-62.56,28.06-62.56,62.56-62.56,62.56,28.06,62.56,62.56Zm113.91-197.32l-137.71,103.76-24.03-170.89c-1.29-9.2,1.77-18.22,8.42-24.74,5.42-5.32,12.45-8.18,19.79-8.18,1.5,0,3.01.12,4.52.36h0c46.07,7.33,90.49,25.73,128.46,53.21,7.53,5.46,11.92,13.91,12,23.2.09,9.24-4.1,17.73-11.47,23.28Zm-161.74,461.79l24.03-170.9,137.71,103.77c7.38,5.55,11.56,14.04,11.47,23.27-.09,9.3-4.47,17.75-12,23.2-37.98,27.48-82.4,45.89-128.46,53.22-8.97,1.47-17.81-1.43-24.33-7.83-6.64-6.52-9.7-15.53-8.41-24.73Zm205.87-76.53c-.09,0-.19,0-.29,0-9.12,0-17.49-4.18-22.98-11.47l-103.77-137.71,170.9-24.03c9.3-1.31,18.21,1.77,24.73,8.41,6.4,6.52,9.26,15.38,7.83,24.32-7.35,46.09-25.74,90.51-53.22,128.46-5.46,7.54-13.91,11.92-23.2,12Zm43.86-202.66l-170.9-24.02,103.77-137.71c5.55-7.39,14.2-11.4,23.28-11.47,9.29.09,17.74,4.47,23.19,12,27.48,37.98,45.89,82.4,53.22,128.45,1.43,8.95-1.43,17.81-7.83,24.33-6.52,6.65-15.49,9.73-24.73,8.41Z"/>
      <g>
        <path class="cls-1" d="m1159.83,121.79h78.54v478.13h-78.54v-206.95h-204.92v206.95h-78.54V121.79h78.54v196.04h204.92V121.79Z"/>
        <path class="cls-1" d="m1366.11,460.58c5.46,25.96,17.98,45.89,37.56,59.77,19.57,13.89,43.48,20.84,71.72,20.84,39.16,0,68.53-14.11,88.11-42.36l60.8,35.52c-33.71,49.64-83.57,74.46-149.59,74.46-55.56,0-100.4-16.97-134.55-50.9-34.15-33.92-51.23-76.83-51.23-128.75s16.85-93.69,50.55-128.06c33.69-34.38,76.95-51.58,129.77-51.58,50.09,0,91.19,17.54,123.29,52.6,32.1,35.06,48.16,77.64,48.16,127.73,0,7.74-.92,17.99-2.73,30.73h-271.85Zm-.68-60.1h200.81c-5.01-27.77-16.5-48.72-34.49-62.84-17.99-14.1-39.05-21.17-63.18-21.17-27.32,0-50.1,7.52-68.31,22.54-18.22,15.04-29.83,35.52-34.83,61.47Z"/>
        <path class="cls-1" d="m1758.16,315.77c18.66-42.34,53.73-63.51,105.19-63.51v79.91c-28.24-1.8-52.83,4.91-73.76,20.15-20.95,15.26-31.42,40.41-31.42,75.48v172.12h-73.77v-341.51h73.77v57.37Z"/>
        <path class="cls-1" d="m2060.16,329.44h-84.7v163.92c0,14.13,3.19,24.26,9.57,30.39,6.37,6.15,15.82,9.57,28.35,10.26,12.51.67,28.11.57,46.79-.35v66.25c-56.47,6.83-96.99,1.93-121.58-14.69-24.59-16.62-36.89-47.23-36.89-91.87V184.63l73.76-21.86v95.63h84.7v71.03Z"/>
        <path class="cls-1" d="m2285.56,249.52c39.16,0,70.8,12.54,94.94,37.58,24.13,25.04,36.2,59.42,36.2,103.13v209.69h-73.77v-202.17c0-25.5-6.83-45.08-20.49-58.75-13.66-13.65-32.34-20.49-56-20.49-25.96,0-46.91,8.09-62.84,24.25-15.94,16.17-23.9,40.88-23.9,74.11v183.05h-73.77V121.79h73.77v180.33c22.3-35.06,57.6-52.6,105.87-52.6Z"/>
        <path class="cls-1" d="m2745.24,258.41h73.76v341.51h-73.76v-49.18c-27.78,38.71-67.62,58.06-119.53,58.06-46.91,0-86.98-17.43-120.22-52.25-33.24-34.84-49.86-77.29-49.86-127.39s16.62-93.11,49.86-127.73c33.24-34.6,73.31-51.92,120.22-51.92,51.91,0,91.75,19.13,119.53,57.38v-48.49Zm-185.1,248.96c20.49,20.74,46.21,31.08,77.18,31.08s56.69-10.34,77.18-31.08c20.49-20.71,30.74-46.79,30.74-78.2s-10.24-57.48-30.74-78.2c-20.49-20.72-46.22-31.08-77.18-31.08s-56.69,10.36-77.18,31.08c-20.49,20.72-30.74,46.79-30.74,78.2s10.24,57.49,30.74,78.2Z"/>
      </g>
    </g>
  </g>
</svg>